{"title":"Hercules.[1997].Swedish.DvdRiP.XviD-KnÃƒÂ£","uid":6425466,"size":364836864,"categoryP":"video","categoryS":"movies","magnet":"?xt=urn:btih:3477e0d1f30ff1abd06bce9b015c72a9476f342e&amp;dn=Hercules.%5B1997%5D.Swedish.DvdRiP.XviD-Kn%C3%83%C2%A3&amp;tr=udp%3A%2F%2Ftracker.openbittorrent.com%3A80&amp;tr=udp%3A%2F%2Fopen.demonii.com%3A1337&amp;tr=udp%3A%2F%2Ftracker.coppersurfer.tk%3A6969&amp;tr=udp%3A%2F%2Fexodus.desync.com%3A6969","seeders":0,"leechers":1,"uploader":"Jon.Pson","files":1,"time":1306447893,"description":"General\nComplete name                    : X:\\Barnfilmer\\Hercules.[1997].Swedish.DvdRiP.XviD-KnÃƒÂ£\\Hercules.[1997].Swedish.DvdRiP.XviD-KnÃƒÂ£.avi\nFormat                           : AVI\nFormat/Info                      : Audio Video Interleave\nFile size                        : 348 MiB\nDuration                         : 48mn 55s\nOverall bit rate                 : 994 Kbps\nWriting application              : VirtualDubMod 1.5.4.1 (build 2178/release)\nWriting library                  : VirtualDubMod build 2178/release\n\nVideo\nID                               : 0\nFormat                           : MPEG-4 Visual\nFormat profile                   : Advanced Simple@L5\nFormat settings, BVOP            : Yes\nFormat settings, QPel            : No\nFormat settings, GMC             : No warppoints\nFormat settings, Matrix          : Custom\nCodec ID                         : XVID\nCodec ID/Hint                    : XviD\nDuration                         : 48mn 55s\nBit rate                         : 877 Kbps\nWidth                            : 768 pixels\nHeight                           : 576 pixels\nDisplay aspect ratio             : 4:3\nFrame rate                       : 25.000 fps\nColor space                      : YUV\nChroma subsampling               : 4:2:0\nBit depth                        : 8 bits\nScan type                        : Progressive\nBits/(Pixel*Frame)               : 0.079\nStream size                      : 307 MiB (88%)\nWriting library                  : XviD 1.2.0.dev47 (UTC 2006-11-01)\n\nAudio\nID                               : 1\nFormat                           : MPEG Audio\nFormat version                   : Version 1\nFormat profile                   : Layer 3\nMode                             : Joint stereo\nMode extension                   : MS Stereo\nCodec ID                         : 55\nCodec ID/Hint                    : MP3\nDuration                         : 48mn 55s\nBit rate mode                    : Variable\nBit rate                         : 104 Kbps\nNominal bit rate                 : 128 Kbps\nChannel(s)                       : 2 channels\nSampling rate                    : 48.0 KHz\nStream size                      : 36.4 MiB (10%)\nAlignment                        : Aligned on interleaves\nInterleave, duration             : 24 ms (0.60 video frame)\nInterleave, preload duration     : 512 ms\nWriting library                  : LAME3.97 \nEncoding settings                : -m j -V 4 -q 2 -lowpass 17 --abr 128\nLanguage                         : Swedish\n\n","torrent":{"xt":"urn:btih:3477e0d1f30ff1abd06bce9b015c72a9476f342e","amp;dn":"Hercules.%5B1997%5D.Swedish.DvdRiP.XviD-Kn%C3%83%C2%A3","amp;tr":["udp%3A%2F%2Ftracker.openbittorrent.com%3A80","udp%3A%2F%2Fopen.demonii.com%3A1337","udp%3A%2F%2Ftracker.coppersurfer.tk%3A6969","udp%3A%2F%2Fexodus.desync.com%3A6969"],"infoHash":"3477e0d1f30ff1abd06bce9b015c72a9476f342e","infoHashBuffer":{"type":"Buffer","data":[52,119,224,209,243,15,241,171,208,107,206,155,1,92,114,169,71,111,52,46]},"announce":[],"urlList":[]}}